P3
21 16
255
88 88 88 77 77 77 65 65 65 65 65 65 77 77 77 91 91 91 96 96 96 95 95 95 96 96 96 104 104 104 115 115 115 123 123 123 127 127 127 128 128 128 131 131 131 139 139 139 150 150 150 158 158 158 158 158 158 152 152 152 147 147 147
77 77 77 63 63 63 47 47 47 47 47 47 63 63 63 80 80 80 88 88 88 86 86 86 87 87 87 97 97 97 111 111 111 122 122 122 127 127 127 128 128 128 132 132 132 143 143 143 157 157 157 167 167 167 167 167 167 159 159 159 152 152 152
65 65 65 47 47 47 28 28 28 27 27 27 47 47 47 69 69 69 78 78 78 76 76 76 78 78 78 90 90 90 108 108 108 121 121 121 127 127 127 128 128 128 133 133 133 146 146 146 164 164 164 177 177 177 177 177 177 167 167 167 158 158 158
64 66 66 46 49 48 27 30 29 26 30 29 46 49 48 68 71 70 77 80 78 75 78 76 77 80 78 90 92 90 108 109 108 121 123 121 127 128 126 128 130 127 133 135 132 147 148 145 165 165 162 177 178 174 177 178 175 167 168 165 158 159 157
73 88 85 58 77 73 41 65 59 41 65 59 58 78 72 77 93 86 84 101 91 83 101 89 84 103 90 95 110 99 110 122 110 122 133 118 127 139 121 128 140 122 133 142 126 144 151 134 159 165 145 170 176 151 170 176 152 162 166 147 154 158 142
79 126 115 65 126 111 50 127 108 50 127 108 65 129 110 82 134 112 89 141 110 87 146 108 89 147 108 98 146 110 112 149 112 123 158 110 127 165 108 128 166 108 132 162 110 142 164 112 156 175 110 166 185 108 166 184 108 158 173 111 151 163 115
73 165 142 58 176 147 41 188 152 41 189 151 58 181 145 77 177 134 84 184 126 83 195 122 84 195 121 95 186 118 110 182 110 122 190 99 127 201 90 128 201 89 133 191 91 144 186 86 159 195 72 170 207 59 170 206 59 162 191 73 154 176 85
64 187 157 46 204 165 27 223 175 26 224 174 46 211 162 68 202 145 77 211 132 75 225 127 77 225 126 90 211 121 108 203 108 121 212 90 127 226 78 128 226 76 133 212 78 147 204 70 165 213 48 177 227 29 177 226 29 167 206 48 158 188 66
66 188 157 49 206 165 30 226 175 30 227 174 49 213 162 71 204 145 80 212 132 78 226 127 80 226 126 92 212 121 109 203 108 123 211 90 128 225 78 130 225 76 135 211 78 148 202 70 165 211 48 178 224 29 178 223 29 168 204 48 159 187 66
88 176 142 77 191 147 65 206 152 65 207 151 78 195 145 93 186 134 101 191 126 101 201 122 103 201 121 110 190 118 122 182 110 133 186 99 139 195 90 140 195 89 142 184 91 151 177 86 165 181 72 176 189 59 176 188 59 166 176 73 158 165 85
126 163 115 126 173 111 127 184 108 127 185 108 129 175 110 134 164 112 141 162 110 146 166 108 147 165 108 146 158 110 149 149 112 158 146 110 165 147 108 166 146 108 162 141 110 164 134 112 175 129 110 185 127 108 184 127 108 173 126 111 163 126 115
165 158 85 176 166 73 188 176 59 189 176 59 181 165 72 177 151 86 184 142 91 195 140 89 195 139 90 186 133 99 182 122 110 190 110 118 201 103 121 201 101 122 191 101 126 186 93 134 195 78 145 207 65 151 206 65 152 191 77 147 176 88 142
187 159 66 204 168 48 223 178 29 224 178 29 211 165 48 202 148 70 211 135 78 225 130 76 225 128 78 211 123 90 203 109 108 212 92 121 226 80 126 226 78 127 212 80 132 204 71 145 213 49 162 227 30 174 226 30 175 206 49 165 188 66 157
188 158 65 206 167 47 225 177 28 227 177 27 213 164 47 204 146 69 213 133 78 227 128 76 227 127 78 213 121 90 204 108 108 213 90 121 227 78 127 227 76 128 213 78 133 204 69 146 213 47 164 227 27 177 225 28 177 206 47 167 188 65 158
176 152 77 190 159 63 206 167 47 207 167 47 196 157 63 189 143 80 196 132 88 207 128 86 207 127 87 196 122 97 189 111 111 196 97 122 207 87 127 207 86 128 196 88 132 189 80 143 196 63 157 207 47 167 206 47 167 190 63 159 176 77 152
165 147 88 176 152 77 188 158 65 189 158 65 180 150 77 175 139 91 180 131 96 189 128 95 189 127 96 180 123 104 175 115 115 180 104 123 189 96 127 189 95 128 180 96 131 175 91 139 180 77 150 189 65 158 188 65 158 176 77 152 165 88 147
